<svg width="589" height="135" viewBox="0 0 589 135" fill="none" xmlns="http://www.w3.org/2000/svg">
<g clip-path="url(#clip0_3_248)">
<path d="M159.1 104.7V125.8C159.1 128.4 158.3 130.5 156.7 132C155.1 133.5 153 134.3 150.5 134.3C148 134.3 145.8 133.5 144.3 132C142.7 130.5 141.9 128.4 141.9 125.8H146.7C146.7 127.1 147.1 128.1 147.7 128.9C148.3 129.7 149.3 130 150.5 130C151.7 130 152.7 129.6 153.3 128.8C153.9 128 154.3 127 154.3 125.7V104.6H159.1V104.7Z" fill="white"/>
<path d="M175.5 133.3C173.9 132.6 172.7 131.6 171.8 130.4C170.9 129.1 170.5 127.7 170.5 126H175.6C175.7 127.3 176.2 128.3 177.1 129.1C178 129.9 179.2 130.3 180.8 130.3C182.4 130.3 183.7 129.9 184.7 129.1C185.6 128.3 186.1 127.3 186.1 126C186.1 124.7 185.8 124.2 185.2 123.6C184.6 123 183.9 122.5 183.1 122.2C182.2 121.9 181.1 121.5 179.5 121.1C177.6 120.6 176 120.1 174.8 119.6C173.6 119.1 172.6 118.3 171.7 117.2C170.9 116.1 170.4 114.6 170.4 112.8C170.4 111 170.8 109.6 171.7 108.4C172.6 107.2 173.7 106.2 175.2 105.5C176.7 104.8 178.5 104.5 180.5 104.5C183.3 104.5 185.7 105.2 187.5 106.6C189.3 108 190.3 110 190.5 112.4H185.2C185.2 111.3 184.6 110.4 183.7 109.7C182.8 108.9 181.6 108.6 180 108.6C178.4 108.6 177.5 109 176.6 109.7C175.7 110.4 175.3 111.4 175.3 112.7C175.3 114 175.6 114.3 176.1 114.9C176.6 115.5 177.3 115.9 178.2 116.3C179.1 116.7 180.2 117 181.7 117.4C183.6 117.9 185.2 118.5 186.4 119C187.6 119.5 188.7 120.4 189.5 121.5C190.4 122.6 190.8 124.1 190.8 125.9C190.8 127.7 190.4 128.8 189.6 130.1C188.8 131.4 187.6 132.5 186.1 133.3C184.6 134.1 182.8 134.5 180.7 134.5C178.6 134.5 177 134.2 175.4 133.5L175.5 133.3Z" fill="white"/>
<path d="M85.5 0C79.8 0 74.3 2.2 70.2 6.3L68.7 7.8C68 18.6 64.4 28.4 58.7 37.5C60.7 28.8 62.9 20 61.4 15.1L47.5 29C46.8 39.7 43.2 49.5 37.5 58.5C39.8 49.9 41.3 42 40.4 36.1L26.3 50.1C21.5 54.9 18.8 61.4 18.7 68.2V106.8C18.6 106.8 5.2 120 5.2 120C1.9 123.2 0 127.7 0 132.3V133.4L99.2 34.9C108.5 25.7 113.7 13.1 113.7 0.1H85.5V0Z" fill="white"/>
<path d="M77.8 83L105.1 55.8C110.5 50.5 113.5 43.2 113.5 35.7V19.2C112.6 22.8 111.4 26.2 109.5 28.9C105.9 33.9 101.9 38.6 97.5 42.9L50.6 89.4L68.7 87.3C72.1 86.9 75.3 85.4 77.7 83H77.8Z" fill="white"/>
<path d="M45.5 94.6L23.5 116.5L35.9 116.7C40.9 116.7 45.6 114.9 49.2 111.4L70.4 90.4C69 91.3 67.7 91.8 66.3 92.2L45.6 94.6H45.5Z" fill="white"/>
<path d="M235.4 57.6H194.6C194.9 61.3 196.1 64.1 198.1 66C200.2 67.9 202.7 68.9 205.7 68.9C210.2 68.9 213.3 67 215.1 63.2H234.3C233.3 67.1 231.5 70.5 229 73.6C226.4 76.7 223.2 79.1 219.4 80.9C215.5 82.7 211.2 83.5 206.4 83.5C201.6 83.5 195.5 82.3 191 79.8C186.5 77.3 183 73.8 180.5 69.3C178 64.7 176.7 59.4 176.7 53.3C176.7 47.2 177.9 41.8 180.4 37.3C182.9 32.7 186.4 29.2 190.9 26.8C195.4 24.3 200.6 23.1 206.4 23.1C212.2 23.1 217.2 24.3 221.6 26.7C226 29.1 229.5 32.5 232 36.9C234.5 41.3 235.7 46.5 235.7 52.4C235.7 58.3 235.6 55.8 235.4 57.7V57.6ZM217.3 47.6C217.3 44.5 216.2 42 214.1 40.2C212 38.4 209.4 37.5 206.2 37.5C203 37.5 200.6 38.4 198.6 40.1C196.5 41.9 195.2 44.4 194.8 47.6H217.4H217.3Z" fill="white"/>
<path d="M245 37.2C247.3 32.6 250.4 29.1 254.3 26.7C258.2 24.2 262.6 23 267.5 23C272.4 23 275.3 23.8 278.4 25.5C281.5 27.2 283.9 29.4 285.6 32.1V23.8H303.6V82.6H285.6V74.3C283.8 77 281.4 79.3 278.3 80.9C275.2 82.6 271.5 83.4 267.4 83.4C263.3 83.4 258.3 82.2 254.3 79.7C250.4 77.2 247.3 73.7 245 69.1C242.7 64.5 241.6 59.2 241.6 53.1C241.6 47 242.7 41.7 245 37.2ZM281.9 42.6C279.4 40 276.4 38.7 272.8 38.7C269.2 38.7 266.2 40 263.7 42.5C261.2 45.1 260 48.6 260 53.1C260 57.6 261.2 61.2 263.7 63.8C266.2 66.4 269.2 67.8 272.8 67.8C276.4 67.8 279.4 66.5 281.9 63.9C284.4 61.3 285.6 57.7 285.6 53.2C285.6 48.7 284.4 45.2 281.9 42.6Z" fill="white"/>
<path d="M349.6 67.4V82.7H340.4C333.9 82.7 328.8 81.1 325.1 77.9C321.4 74.7 319.6 69.5 319.6 62.2V38.8H312.4V23.8H319.6V9.5H337.6V23.8H349.4V38.8H337.6V62.4C337.6 64.2 338 65.4 338.9 66.2C339.7 67 341.1 67.4 343.1 67.4H349.5H349.6Z" fill="white"/>
<path d="M485.8 57.6H445C445.3 61.3 446.5 64.1 448.5 66C450.6 67.9 453.1 68.9 456.1 68.9C460.6 68.9 463.7 67 465.5 63.2H484.7C483.7 67.1 481.9 70.5 479.4 73.6C476.8 76.7 473.6 79.1 469.8 80.9C465.9 82.7 461.6 83.5 456.8 83.5C452 83.5 445.9 82.3 441.4 79.8C436.9 77.3 433.4 73.8 430.9 69.3C428.4 64.7 427.1 59.4 427.1 53.3C427.1 47.2 428.3 41.8 430.8 37.3C433.3 32.7 436.8 29.2 441.3 26.8C445.8 24.3 451 23.1 456.8 23.1C462.6 23.1 467.6 24.3 472 26.7C476.4 29.1 479.9 32.5 482.4 36.9C484.9 41.3 486.1 46.5 486.1 52.4C486.1 58.3 486 55.8 485.8 57.7V57.6ZM467.7 47.6C467.7 44.5 466.6 42 464.5 40.2C462.4 38.4 459.8 37.5 456.6 37.5C453.4 37.5 451 38.4 449 40.1C446.9 41.9 445.6 44.4 445.2 47.6H467.8H467.7Z" fill="white"/>
<path d="M551 80.9C547 79.1 543.8 76.7 541.5 73.7C539.2 70.6 537.9 67.2 537.6 63.4H555.4C555.6 65.4 556.6 67.1 558.2 68.4C559.9 69.7 562 70.3 564.4 70.3C566.8 70.3 568.4 69.9 569.6 69C570.8 68.1 571.4 67 571.4 65.6C571.4 64.2 570.5 62.7 568.8 61.9C567 61.1 564.2 60.2 560.3 59.2C556.1 58.2 552.6 57.2 549.8 56.1C547 55 544.6 53.3 542.5 50.9C540.5 48.5 539.4 45.4 539.4 41.4C539.4 37.4 540.3 35 542.2 32.2C544.1 29.4 546.8 27.2 550.4 25.6C554 24 558.3 23.2 563.3 23.2C570.7 23.2 576.5 25 580.8 28.7C585.1 32.4 587.5 37.2 588.1 43.3H571.4C571.1 41.3 570.2 39.6 568.7 38.4C567.2 37.2 565.2 36.6 562.7 36.6C560.2 36.6 559 37 557.8 37.8C556.7 38.6 556.1 39.7 556.1 41.1C556.1 42.5 557 44.1 558.8 44.9C560.6 45.7 563.4 46.6 567.2 47.4C571.6 48.5 575.1 49.6 577.8 50.7C580.5 51.8 582.9 53.5 585 56C587.1 58.4 588.1 61.7 588.2 65.8C588.2 69.2 587.2 72.3 585.3 75C583.4 77.7 580.6 79.8 577 81.4C573.4 82.9 569.2 83.7 564.4 83.7C559.6 83.7 554.7 82.8 550.7 81.1L551 80.9Z" fill="white"/>
<path d="M412 29.9C407.9 25.4 402.5 23.2 395.8 23.2C389.1 23.2 388.3 24 385.1 25.5C381.9 27 379.4 29.1 377.6 31.7V4.60001H359.6V82.6H377.6V58.5C377.6 58.5 377.6 48.5 378 46.6C378.4 44.7 378.3 45.4 378.5 44.9C379 43.6 379.7 42.5 380.6 41.6C382.6 39.4 385.4 38.3 388.8 38.3C392.2 38.3 395 39.4 397 41.6C399 43.8 400.1 46.8 400.1 50.8V82.7H418V48.3C418 40.5 416 34.4 411.9 29.9H412Z" fill="white"/>
<path d="M148.1 70.3C154.6 66.4 161.9 60.2 162.1 52.3C162.1 50.1 162.1 47.5 162.1 44.9V38.8H171.8V23.8H162.1V23.3C162.1 20.2 162.8 18.1 164.2 16.9C165.6 15.7 168 15.2 171.5 15.4V0.1C170.9 0.1 169.9 0 168.5 0C160.5 0 154.4 1.9 150.3 5.6C146.2 9.4 144.1 14.9 144.1 22.1V23.8H137.6V38.8H144.1V82.7H162.1V68.7C157.4 70.6 152.3 71.4 148.1 70.3Z" fill="white"/>
<path d="M521.6 26C518.4 27.9 515.8 30.4 513.7 33.6V23.8H495.7V28.7C496.7 36.6 505.2 44.1 510.7 49C506.2 49.5 500.8 48 495.7 45.3V82.6H513.7V55.3C513.7 50.4 514.8 47.1 517.1 45.1C519.3 43.2 522.7 42.2 527.2 42.2H532.2V23.1C528.3 23.1 524.8 24 521.7 25.9L521.6 26Z" fill="white"/>
</g>
<defs>
<clipPath id="clip0_3_248">
<rect width="588.5" height="134.3" fill="white"/>
</clipPath>
</defs>
</svg>
